<svg viewBox="0 0 512 512" xmlns="http://www.w3.org/2000/svg" xmlns:xlink="http://www.w3.org/1999/xlink"><linearGradient id="a" gradientTransform="matrix(1 0 0 -1 0 -10886)" gradientUnits="userSpaceOnUse" x1="0" x2="512" y1="-11142" y2="-11142"><stop offset="0" stop-color="#00f1ff"/><stop offset=".231" stop-color="#00d8ff"/><stop offset=".5138" stop-color="#00c0ff"/><stop offset=".7773" stop-color="#00b2ff"/><stop offset="1" stop-color="#00adff"/></linearGradient><path d="m512 256c0 141.386719-114.613281 256-256 256s-256-114.613281-256-256 114.613281-256 256-256 256 114.613281 256 256zm0 0" fill="url(#a)"/><g fill="#fff"><path d="m251.679688 101h-66.992188c-8.285156 0-15-6.714844-15-15s6.714844-15 15-15h66.992188c8.28125 0 15 6.714844 15 15s-6.71875 15-15 15zm0 0"/><path d="m357.566406 157.1875h-22.328125c-8.285156 0-15-6.714844-15-15s6.714844-15 15-15h22.328125c7.21875 0 13.09375-5.875 13.09375-13.09375s-5.875-13.09375-13.09375-13.09375h-48.261718c-8.285157 0-15-6.714844-15-15s6.714843-15 15-15h48.261718c23.761719 0 43.09375 19.332031 43.09375 43.09375s-19.332031 43.09375-43.09375 43.09375zm0 0"/><path d="m395.746094 213.371094h-240.59375c-23.761719 0-43.09375-19.332032-43.09375-43.089844 0-23.761719 19.332031-43.09375 43.09375-43.09375h121.738281c8.285156 0 15 6.714844 15 15s-6.714844 15-15 15h-121.738281c-7.21875 0-13.09375 5.875-13.09375 13.09375s5.875 13.089844 13.09375 13.089844h240.59375c8.285156 0 15 6.71875 15 15 0 8.285156-6.714844 15-15 15zm0 0"/><path d="m298.5 270.28125h-212.5c-8.285156 0-15-6.71875-15-15 0-8.285156 6.714844-15 15-15h212.5c8.285156 0 15 6.714844 15 15 0 8.28125-6.714844 15-15 15zm0 0"/><path d="m397.546875 327.1875h-86.082031c-8.28125 0-15-6.714844-15-15s6.71875-15 15-15h86.082031c7.417969 0 13.453125-6.035156 13.453125-13.453125s-6.035156-13.453125-13.453125-13.453125h-41.417969c-8.285156 0-15-6.71875-15-15 0-8.285156 6.714844-15 15-15h41.417969c23.960937 0 43.453125 19.492188 43.453125 43.453125 0 23.957031-19.492188 43.453125-43.453125 43.453125zm0 0"/><path d="m190.449219 384.09375h-52.226563c-23.957031 0-43.453125-19.492188-43.453125-43.453125s19.496094-43.453125 43.453125-43.453125h115.617188c8.28125 0 15 6.714844 15 15 0 8.28125-6.71875 15-15 15h-115.613282c-7.417968 0-13.453124 6.035156-13.453124 13.453125s6.035156 13.453125 13.453124 13.453125h52.222657c8.285156 0 15 6.714844 15 15s-6.714844 15-15 15zm0 0"/><path d="m412.3125 384.09375h-164.238281c-8.28125 0-15-6.714844-15-15s6.71875-15 15-15h164.238281c8.285156 0 15 6.714844 15 15s-6.714844 15-15 15zm0 0"/><path d="m351.804688 441h-64.109376c-8.285156 0-15-6.714844-15-15s6.714844-15 15-15h64.109376c8.285156 0 15 6.714844 15 15s-6.714844 15-15 15zm0 0"/><path d="m230.0625 441h-58.34375c-8.28125 0-15-6.714844-15-15s6.71875-15 15-15h58.34375c8.285156 0 15 6.714844 15 15s-6.714844 15-15 15zm0 0"/></g></svg>